<mxfile host="app.diagrams.net" modified="2021-04-16T13:29:03.600Z" agent="5.0 (Windows NT 10.0; WOW64) AppleWebKit/537.36 (KHTML, like Gecko) Chrome/80.0.3987.87 Safari/537.36 SE 2.X MetaSr 1.0" etag="MWGek6sp9uIMroyyDBQk" version="14.6.1" type="github">
  <diagram id="B1-8xfMEiBsvkA6x5ARF" name="Page-1">
    <mxGraphModel dx="1422" dy="747" grid="1" gridSize="10" guides="1" tooltips="1" connect="1" arrows="1" fold="1" page="1" pageScale="1" pageWidth="827" pageHeight="1169" math="0" shadow="0">
      <root>
        <mxCell id="0" />
        <mxCell id="1" parent="0" />
        <mxCell id="icwHRdFfkexFgwwHg9L4-1" value="" style="shape=image;verticalLabelPosition=bottom;labelBackgroundColor=#ffffff;verticalAlign=top;aspect=fixed;imageAspect=0;image=data:image/png,iVBORw0KGgoAAAANSUhEUgAAAfEAAAGnCAYAAACn5W6XAAAgAElEQVR4Ae2d+9MlQ5rH9984u7/4xU/7myAQRLcQ6CM6EHqxjBGiG++6zTrD6sZao9Fu04bRl8Po7plxGdehjbWMY81lh3YfIXpM094lhhAaG4IOAkE8G09mZVXeqk7VOXXJqvpWxPueOlWZTz75eTLzW1mnLn9HWEAABEAABEAABFpJ4O9a6fUMTu/cuZM2bNhAF198MR111FG0sLBA++23H/5yMGBWzGz16tW0ceNGYpZYQAAEQAAEmifQCxFfu3YtrVmzhrZt20a7d++mjz/+uHnyLfOAmb311lu0detWIebMFAsIgAAIgECzBDot4i+++CItXbqUtm/f3izlDpbOTJcsWULMGAsIgAAIgEAzBDor4jt27KCVK1fS559/3gzZHpS6d+9eWrVqFTFrLCAAAiAAAvUT6KSI8+yQxQVLPQT4YAkz8npYoxQQAAEQ0Al0UsT5FDpm4HqYq11n1swcCwiAAAiAQL0EOififMEVfgOvtxFxacwcF7vVzx0lggAI9JtAp0Scb33i26CwNEOA7wDA7WfNsEepIAAC/STQKRHn+8D5NjIszRDYsmULbdq0qZnCUSoIgAAI9JBAp0ScH+TC94FjaYbArl27xP34zZSOUkEABECgfwQ6JeL8VDE8yKW5Rrxnzx4aDofNOYCSQQAEQKBnBDol4vx4UCzNEkAMmuWP0kEABPpFoFMizs9Cx9IsAcSgWf4oHQRAoF8EIOIBxnsyGtBwvOj3bDKiwWBEE//exrdCxBsPARwAARDoEQGIeJnBXhzTcDCgQeE/XZQXaTwc0Mir0ln7yqzI7LYg4rOzQ04QAAEQKEoAIl6UWIH0aTPqxfGQBsMx+efaExoNhuSdiPMsPM7H6dLEvoCTJSeFiJcMFOZAAARAIIMARDwDzry7iom4FGV3Fq9m6TwLt8Q9wFPrEPF5Ww3ygwAIgEB+AhDx/KwKpywm4tK8mKWrc+ni9Hwk4izYanvsiTy97m6PE9S+AhGvHTkKBAEQ6DEBiHiFwZ9FxI088elznqWPaDRK/73d0fcK65VlGiKeRQf7QAAEQKBcAhDxcnka1gxB1vak/yZuXrim0o1j8Van1jVjRMTlhDIbh4ibscE3EAABEKiSAES8NLrRqe3CV6ZHs2sxlZYzbnVhetpBQGkuV2AIIl4BVJgEARAAgRQCEPEUMGVsThNhNcN2rk43LlTTrz5Pu+hNPwAow+P5bUDE52cICyAAAiCQlwBEPC+pGdIVFnEuQwj5gEYj/aEuLOLWlemRP8aFcDP4WHYWiHjZRGEPBEAABNIJQMTT2cy5x/x9WzeWOhNXiaKHxiRPbYOIKzT4BAEQAAEQSAhAxBMW5a4Zp8ZN09kirm4bG4mHucgL1iDiJkF8AwEQAAEQYAIQ8UragfwNO5lJm4Wki7jMl1xpLr+PJtH2tIvmQrm/jIhwOt2MNb6BAAiAQJUEIOJl041+004TcC7OL+JyBu7PxyKO38TLDhXsgQAIgEDbCXRKxBt/l7UQcL/Y6g3FL+J6ivauNx6D9qKD5yAAAiBQmECnRPyoo46ijz/+uDAEZCiHwJ49e2g4HJZjDFZAAARAAASmEuiUiK9evZreeuutqZVGgmoI7Nq1iy655JJqjMMqCIAACICAQ6BTIr5x40baunWrU0lsqIfAHXfcQZs3b66nMJQCAiAAAiDQravTd+7cSWvWrEFYGyLAZ0I4BlhAAARAAATqIdCpmTgjW7t2LW3fvr0eeiglJsDMmT0WEAABEACB+gh0TsQZ3ZIlS2jv3r31Uex5ScyamWMBARAAARCol0AnRfzFF1+klStX1kuyx6WtWrWKmDkWEAABEACBegl0UsQZ4Y4dO4jF5fPPP6+XaI9K4xk4HywxaywgAAIgAAL1E+isiDNKnh0uXboUv5FX0K74N3A+hY4ZeAVwYRIEQAAEchLotIgrBnzBFV85vWXLFuJ7mfmhJFiKEWBmzI5vI2OWuIitGD+kBgEQAIEqCPRCxBkc3/q0adMm8TASfqoYPx6UX9YR0t++++4blD+KDbNiZvwgF74PHLeRVdEVYRMEQAAEihPojYgXR1N/jsFgUH+hKBEEQAAEQKC1BCDiAYUOIh5QMOAKCIAACLSAAEQ8oCBBxAMKBlwBARAAgRYQgIgHFCSIeEDBgCsgAAIg0AICEPGAggQRDygYcAUEQAAEWkAAIh5QkCDiAQUDroAACIBACwhAxAMKEkQ8oGDAFRAAARBoAQGIeEBBgogHFAy4AgIgAAItIAARDyhIEPGAggFXQAAEQKAFBCDiAQUJIh5QMOAKCIAACLSAAEQ8oCBBxAMKBlwBARAAgRYQgIgHFCSIeEDBgCsgAAIg0AICEPGAggQRDygYcAUEQAAEWkAAIh5QkCDiAQUDroAACIBACwhAxAMKEkQ8oGDAFRAAARBoAQGIeEBBgogHFAy4AgIgAAItIAARDyhIEPGAggFXQAAEQKAFBCDiAQUJIh5QMOAKCIAACLSAAEQ8oCBBxAMKBlwBARAAgRYQgIgHFCSIeEDBgCsgAAIg0AICEPGAggQRDygYcAUEQAAEWkAAIh5QkCDiAQUDroAACIBACwhAxAMKEkQ8oGDAFRAAARBoAQGIeEBBgogHFAy4AgIgAAItIAARDyhIEPGAggFXQAAEQKAFBCDiAQUJIh5QMOAKCIAACLSAAEQ8oCBBxAMKBlwBARAAgRYQgIgHFCSIeEDBgCsgAAIg0AICEPGAggQRDygYcAUEQAAEWkAAIh5QkCDiAQUDroAACIBACwhAxAMKEkQ8oGDAFRAAARBoAQGIeEBBgogHFAy4AgIgAAItIAARbzhIy5YtIxZv+4+3YwEBEAABEACBLAIQ8Sw6Nexbt24d7bPPPoaI83fejgUEQAAEQAAEsghAxLPo1LTPnoXjtHpN4FEMCIAACLScAEQ8gADqs3HMwgMICFwAARAAgZYQqE3EFxYWaL/99sNfCgN9Ng5O2e2E2xIWEAABEAABotpEnIUJSzoBNRvHb+HpjNQetCVFAp8gAAJ9JwARD6gFLF++PCBvwnUFIh5ubOAZCIBAvQQg4vXyRmklEICIlwARJkAABDpBACLeiTD2qxIQ8X7FG7UFARBIJwART2eDPYESgIgHGhi4BQIgUDsBiHjtyFHgvAQg4vMSRH4QAIGuEICIdyWSPaoHRLxHwUZVQQAEMglAxDPxYGeIBCDiIUYFPoEACDRBACLeBHWUORcBiPhc+JAZBECgQwQg4h0KZl+qAhHvS6RRTxAAgWkEIOLTCGF/cAQg4sGFBA6BAAg0RAAi3hB4FDs7AYj47OyQEwRAoFsEIOLdimcvagMR70WYUUkQAIEcBCDiOSAhSVgEIOJhxQPegAAINEcAIt4ce5Q8IwGI+IzgkA0EQKBzBCDinQtp9ysEEe9+jFFDEACBfAQg4vk4IVVABCDiAQUDroAACDRKACLeKH4UPgsBiPgs1JAHBECgiwQg4l2MasfrBBHveIBRPRAAgdwEIOK5USFhKAQg4qFEAn6AAAg0TQAi3nQEUH5hAhDxwsiQAQRAoKMEIOIdDWyXqwUR73J0UTcQAIEiBIIX8cXxkAajiVmnxTENByOytiZppu1PUnrWJjQaDGm86NmVc9NkNKBhmoHJiAZZvsdlsB+mHcFiOKbpri3SeDggG5swLcqfr36xi4VXJjSy/edYeR1NNw4RT2eDPSAAAv0iEJiIS+EaDAYk/4Y0nriC7RV2PW6OiEtRS+wq+/4DAdN+Wl5lY0ADQ5gyBJSy9ukVICKP2E8T8eTgQStHsNBFO6pPqnDaMdDqGcdF36bZFj7r+5J1VZzLVstvIUj7ChFPI4PtIAACfSMQoIhHg3osxEqQIvHxCsnAnK3HeVU4lQ313S+Syd4JjUcTd8br2CVyhTVjJs8iFwu+FEslbknZco0F2T4D4ZZF7AANlc14PamvKZpRKZ4DBLv8ad+Ff9aZApXHLDPxRe2fjGSMOV3qGQuV2PMJEfdAwSYQAIFeEghWxPUB3hAFQwjNmIl0jsizYLhC4pvpKmHSZ+yGyGSKeNoMVs322Qdr1pkmpqIcK63Q66F2EMB1j8pUIh7P9FV9owMKcTYjmRXr9YvPeEw/Ry9hC9/ssw+8S5bp2k7KHQ6H0RmWZJtKb3A2w+p8g4g7SLABBECgpwQCFfFIfBxhSRFKezrriKMSNS3KThptH6/6hNRzACEOHGIRjWbmyh9d9Dmv2h4XFQmftV0cTGg2VXKzrCivlU4e8Izlb+IjX5nKWvFPdZBjuesY4nSJKHvYixMhehrHROYGiHgmHuwEARDoEYEwRXwcnXYWQitnbaNJJFrWKVwpWuYlblJs1AyYo+kRkkwR96RnM2kirqmaIWBxej74GNGIT5E7ZwpU/aJWlzrT1U/dKxZ6HfVW6/E/9sVNlwiuvs9cNw8gzH32N4OBjz1E3EaG7yAAAiAwE4EwRXxRzrilNkaCNOarmOUM0xFCTUTjU8yRWBo2dK3PEHFdsMQBQWRf365omwcRpniq9ONYvP2im5ShxNl3ulqJ+JCGom6uLWHHe5AwoonvzII4He+etld10z9VXZyTI3oiwdR/oMIIhQ2vfylX0uu2tXXMxDUYWAUBEOg1gUBFXJ/16sIo1/WZoymiUiiGo1F0C5o6GNBtRPFOE3FbiLTT1XZZbMncJmfc6ljBnJHmaGfKJ/7UylU5YxH07FNpxGdUB+PYJvr93NhmlZN+EOAXZuNgKvaJGegHBh72mIkb4cIXEAABEJiVQLgiLkSHZ5u6CMh1Qzx4ZhcrE+/33Zam24hQKcHUyUXbxnxv+nBEoyGLlxIkaUM/gOCshogbNtUBBKeS647falYa+a+u2k49bc/pY7HUHTfXlRjzhWS6v/ZBhUgXszNt2N9EPXOU7fPdtsXfbV98adK2YSaeRgbbQQAE+kYgXBGPLwrTBdgVUl1E4/U4rwqnPTuMZvrWQ1eUiOqCFa8LgVaCruxKMUoOIpTdAY34orLYvqf8yETsc2LS+u3dOgCYJqRc9+gARF0NroTcLEvnqhfuX485+HfHW9UBhH3AMhyPxcNr7O3x92n1iksggohrMLAKAiDQawIBinhy6laKjy42rojrs0klwvLKcu03YxZgWyT0WbO+rmbXRnpZriHWUbPxzijFQYR+9fWMIi78Ss40pAmpYCD8VazUJzvJZUcsdA7OgU52P0gr28yVHHDoE3wfI98201b6N4h4OhvsAQEQ6BeBAEXcnu1KYZCikIi4EJXodLQuGCJ8hkAleYzQ6sKti5tHxIVIxqfVDSue08KyvMFoJGeewrkZRdwsyvNgGZlA+MflxPXQRVwzonER/BxwWlprNY+Icxo149ZN+wTbt80qMvUrRDwVDXaAAAj0jEDgIp7M7JLfpnNEyBYrNRPVs9ppNNXRBUsKeNrV0/oBBhuP/I1tqf16PZIzDfGp5Dh95GAsxrrD6upu7QyD2C1t81mL+EyEcR2BaUN+SxF5X9Jom84kLdlkxL6pOiepfILt25bkyF6DiGfzwV4QAIH+EAhaxIWAKoETM2ePAFoXh4nQKYEWn/bMXgXXFFZVDO+NBUvkNwVc7FNl8mecMWXGL4rjsvx+CHuxjci3FBGXPxP4GNjCrou0XI8PGHTf9XXbh+hAQM/nJFEojU+Tq8qvfpdXSSHiigQ+QQAEQGB2AoGJ+OwV6VTONBHPXUldxHNnKikhZuIlgYQZEAABEJhKACI+FREShEYAp9NDiwj8AQEQaIoARLwp8ih3ZgIQ8ZnRISMIgEDHCEDEOxbQPlQHIt6HKKOOIAACeQhAxPNQQpqgCEDEgwoHnAEBEGiQAES8QfgoejYCEPHZuCEXCIBA9whAxLsX087XCCLe+RCjgiAAAjkJQMRzgkKycAhAxMOJBTwBARBolgBEvFn+KH0GAhDxGaAhCwiAQCcJQMQ7GdZuVwoi3u34onYgAAL5CUDE87NCykAIQMQDCQTcAAEQaJwARLzxEMCBogQg4kWJIT0IgEBXCUDEuxrZDtcLIt7h4KJqIAAChQhAxAvhQuIQCEDEQ4gCfAABEAiBAEQ8hCjAh0IEIOKFcCExCIBAhwlAxDsc3K5WDSLe1ciiXiAAAkUJQMSLEkP6xglAxBsPARwAARAIhABEPJBAwI38BCDi+VkhJQiAQLcJQMS7Hd9O1g4i3smwolIgAAIzEICIzwANWZolABFvlj9KBwEQCIdAbSK+sLBAPPjiDwzmbQPclrCAAAiAAAgQ1SbigD2dwPr166cnQgoQAAEQAAEQiAhAxANqCoPBICBv4AoIgAAIgEDoBCDiAUUIIh5QMOAKCIAACLSAAEQ8oCBBxAMKBlwBARAAgRYQgIgHFCSIeEDBgCsgAAIg0AICEPGAggQRDygYcAUEQAAEWkAAIh5QkCDiAQUDroAACIBACwhAxAMKEkQ8oGDAFRAAARBoAQGIeEBBgogHFAy4AgIgAAItIAARDyhIEPGAggFXQAAEQKAFBCDiAQUJIh5QMOAKCIAACLSAAEQ8oCBBxAMKBlwBARAAgRYQgIgHFCSIeEDBgCsgAAIg0AICEPGAggQRDygYcAUEQAAEWkAAIh5QkNJEfN26dbRs2bKAPIUrIAACIAACIRCAiIcQhcgHW8RZvHnbPvvsIz4DchWugAAIgAAIBEAAIh5AEJQLSsRt8ebtap9Ki08QAAEQAAEQgIgH1AZYqJcvXx7PvJV441MexIADOKANlNcGVqxYEdDoB1dmJQARn5VcBfl4gOIFM/EK4MIkCICAQUCNN8ZGfGkdAYh4QCGzO5Ut5gG5CldAAARaTsAeb1pend66DxEPKPRpnYrFHFenBxQouAICHSCQNt50oGq9qgJEPKBwo1MFFAy4AgIdJ4DxphsBhogHFEd0qoCCAVdAoOMEMN50I8AQ8YDiiE4VUDDgCgh0nADGm24EGCIeUBzRqQIKBlwBgY4TwHjTjQBDxAOKIzpVQMGAKyDQcQIYb7oRYIh4QHFEpwooGHAFBDpOAONNNwIMEQ8ojuhUAQUDroBAxwlgvOlGgCHiAcURnSqgYMAVEOg4AYw33QgwRDygOKJTBRQMuAICHSeA8aYbAYaINxxHfhIbdyb7D09oazgwKB4EOk4AIt6NAEPEG44jP1JVvS9cCTl/5+1YQAAEQKAqAhDxqsjWaxciXi9vb2lKvPVPb0JsBAEQAIGSCEDESwLZsBmIeMMB4OL12Thm4QEEBC6AQA8IQMS7EWSIeCBxxCw8kEDADRDoCQGIeDcCDREPJI5qNo7fwgMJCNwAgY4TgIh3I8AQ8YDiuHz58oC8gSsgAAJdJgAR70Z0gxHxhYUF2m+//fDXcwbcDrCAAAhUTwAiXj3jOkoIRsRZwLGAANoB2gAI1EMAIl4P56pLgYhXTRj2CxGAiBfChcQgMDMBiPjM6ILKCBEPKhxwBiKONgAC9RCAiNfDuepSIOJVE4b9QgQg4oVwITEIzEwAIj4zuqAyQsSDCgecgYijDYBAPQQg4vVwrroUiHjVhGG/EAGIeCFcSAwCMxOAiM+MLqiMEPGgwgFnIOJoAyBQDwGIeD2cqy4FIl41YdgvRAAiXggXEoPAzAQg4jOjCyojRDyocMAZiDjaAAjUQwAiXg/nqkuBiFdNGPYLEYCIF8KFxCAwMwGI+MzogsoIEQ8qHHAGIo42AAL1EFi/fn09BaGUSgm0TMQXaTwc0SQLyeKYhoMhjRczEmWkWRwPaTCYUgYRiXTDMWUVk+GBs0uWO8XvOBdzGNDIB2IyosG0+sd2ZlyZxm8OLhDxGWOCbCAAAr0k0EIRH9AgSyQyBEZGWAogn0qy/0aTCY0820U6XTFFGW5+257+Xc/utDTdXkbCyWhAQ3F0oom4U9+ofql2Murorbt7YCEOOLz2Nb+cSubbABHPxwmpQAAEQIAJtEzE2eUpIuWImh5omVcIoZixmjPuWCQjUZWCqefndSmC/n122jzfI1EVoijXvfrIptgvcQCTiKVXUD11y+OJnoZZ8EGIUc+Ii35wItbVQVXa/gJnBiDiehSwDgIgAALZBFoo4pGYpZ3yFkLizh4ZgxAmTSHNU+ITGikxEswSoUwQTjmASBLmXIvs6eVmng5XPqlPFv0hjSf8E0LWmQE/D6+TSoh1n1RCsc888CH2N0rLfDW8MldGPJRZ/RMirtPAOgiAAAhkE2iniGfVKYdoyN+fs0RP26eJmT7rVTNVZ1ZqiakxkzX8jmbgmv14d4aQSx/G8jfx0YgGjmrGVgqvqDqlmswScU3MjYJzxENPDxHXaWAdBEAABLIJtEjEo1mrEkmhNJEQqm1Zn5pY6mKciSdNmKJT+olA27N4aZVFMUmjlSSEbWAIsBBQzUcxwx14ZrbCjJqJaza9vsp0Xh+0rLwqmOjlW/vF1wwRH/MsfDRy6+vL47MdbYOIZ8DBLhAAARCwCLRIxBPPM0U4x8xP5M8SfH2fV9ii09jq0vTFRWIRU6eVlac+EVdl27NdR8SFkeggJUos0ui+xesjmnjrbfmpHPN8ziviEoX016gbRNxDG5tAAARAoBwC/RVxQ2lSYHpnt+LHdc9taO7s2BZxv1DLsrP2SeHXfotmv5xZukdALf/TDwK0nw/iAwNrGx/MCEG2tnN6/UDHPpgQvmq+p6BWmzETVyTwCQIgAALTCfRXxNPEyt6uCdRcIjjloCFLxO0wKj+Gw6Fx+pq366fORbop5Srb5czEpTWjLhBxhRifIAACIFA6gf6KeB5xs2ayir4jjt507sxc5fd9GsLnS6C28Ux3OKLRcEAs4jwjV8IthDiuV7HyyxRxeRtedEW8l42qjPuJmbjLBFtAAARAII1Af0XcnnGnfddm4hKi72Ixuc04rRxd/BZraloEou35RFwJs/rkzHwaPTpdrQtmwd+iyxVxrbK6T9rmtFWIeBoZbAcBEAABl0D7RZzFSldK+zdZt87JljSByRTAtIvFdGHlIuzvSbG+tVwiHvubYlvz25yV+0o0t1Ul4rnsaq5AxDUYWAWBeQnwmJE2QXG2F3iexLx+IX9pBFot4kL4tNPJgkqGiAtBcRqu50ItX5p4Ri4vIMvfMdj+9M6RR8QnI2UnRcTjZjFtf5wwXskltoKth1fMJjYXrUg/itzLDhG3GeI7CJRMIGOMLLkkmKuBQCtFXIm3efo6olWggQo7+ixeARc28l9RrbKZn56rxc0Exrc8Ip5k0EU6EkrfgYe+zamnm89JkhQo13xc4rMDnMS1medlMnoxEHGdBtZBoEwCev8c0UTM0tXEoMxyYKtOAi0U8SniOE3ExX45m0wVLZ9Y5YhKfHChxDO1ANfY7CLu2mrzFoh4m6MH38MkkIi3HJJ4DFWTFHtfmDWAV+kEWiji6ZXBnvYTgIi3P4aoQTgE5MTCnm3rIq58jcS8wMRD5cRnswQg4s3yR+kWAYi4BQRfQQAEQCCDAEQ8Aw521U8AIl4/c5TYdQLyJ8jsi3HV6fWus+he/SDi3Ytpq2sEEW91+OB8kAT8L2hKXPWdXk/2Yi1sAhDxsOPTO+8g4r0LOSpcOQGIeOWIGywAIt4gfBTtEoCIu0ywBQTmIwARn49f2Lkh4gXjkzxwJSuj9RtU6sNQNBvG/dba9pRVvupUPTNdT5K2XU8T8jpEPOTowLd2ErDGI3ULrPGJ38TbGVsiiHjRyIkHJKgGn9xjaV40ovYXMR51tFy3eMi0vqQQ8SLMkRYE+kAAM/EuRxkiPkN0xb2XPgXlZ5aNh+b7tR37eY6K3UebGsWpWbv24BrzIMLN75u1O64FsAEz8QCCABdAAARaQwAiPkuoMp7olk/E7YcvFHMia7adta9YKc2khog3wx2lggAItJMARHyOuBV6oUo8leaZuEfEfQcG0Uw7zip8TT+Vzrsh4nMEFFlBAARAoGUEIOIFAiZOo0cXg5jCmhjJPxO3xdj+Hp2aj59xLMtQBw5x+eI3evf0uX56PU6buBnsGmbiwYYGjoEACARIACJeOCjyYrY0Ycwv4nLWnLymU9rVf7sWBw1GQVLoWaDjzer3cW89sn31Zml4I0S84QCgeBAAgVYRgIgXDpctjImw6rNffT0WXFEWp49OpxtXutsXxaXMzEcjGtkibtwq4s7KzfILV7jWDBDxWnGjMBAAgZYTgIgXDqBfxP1CaacVl6/TUJ0iF795a7+P66Kur0c+TkZ865ol7piJF44gMoAACIBAVwhAxAtH0hZmS1QNe3ZaS8RJ7o9PoWui7p5KV4at8oTYu7Pv9DMByk6Yn5iJhxkXeAUCIBAmAYh44bjYwmyJqmHPTisuHzfuIzfFWtlSn4ax6Iu1DzNxHyRsAwEQAIFeEICIFw6zLcxSVPWZr72un2oXF75pG+TV5tYT3jyn0hM3PSKO38QTPFgDARAAgR4RgIgXDHZ8m1ksxJaoGvZswbe/G4njL+bsPN4crVjlYSZuA8J3EAABEOgNAYh4gVBLAU8uLhvkebGJbj8WXCnm9ow963v8u3l8Ydv0MwCGvaK+6n7XuI7fxGuEjaJ6TWD9+vW9rn9XKg8RLxDJxfGIxotJhnhWPuV0thDT0V00Hmr3dydmCq5ZM/GCuUNPDhEPPULwrysEeFzC0n4CEPH2x7BTNYCIdyqcqEzABCDiAQengGsQ8QKwkLR6AhDx6hmjBBBgAhDxbrQDiHg34tiZWkDEOxNKVCRwAhDxwAOU0z2IeE5QSFYPAYh4PZxRCghAxLvRBiDi3YhjZ2oBEe9MKFGRwAlAxAMPUE73IOI5QSFZPQQg4vVwRikgABHvRhuAiHcjjp2pBUS8M6FERQInABEPPEA53YOI5wSFZPUQgIjXwxmlgABEvBttACLejTh2phYQ8c6EEhUJnABEPPAA5XQvGBFfWFggHsD7/Lfvvvv2uv4ce24HWEAABKonABGvnnEdJWJVOoMAACAASURBVAQj4nVUNvQy0KlCjxD8A4HuEMB4041YQsQDiiM6VUDBgCsg0HECGG+6EWCIeEBxRKcKKBhwBQQ6TgDjTTcCDBEPKI7oVAEFA66AQMcJYLzpRoAh4gHFEZ0qoGDAFRDoOAGMN90IMEQ8oDiiUwUUDLgCAh0ngPGmGwGGiAcUR3SqgIIBV0Cg4wQw3nQjwBDxgOKIThVQMOAKCHScAMabbgQYIh5QHNGpAgoGXAGBDhP4xS9+QUuXLqVf/vKXHa5lP6oGEQ8ozhDxgIIBV0CggwQeeeQROuyww+inP/2pqN0tt9xChx9+OD366KMdrG0/qgQRDyjOEPGAggFXQKBDBP77v/+bjjvuOLrqqqvos88+M2r26aef0pVXXkkrVqygP/zhD8Y+fAmfAEQ8oBhBxAMKBlwBgQ4QePnll+m0006jf/u3f6O//e1vmTV65513aDQa0RlnnEGvv/56ZlrsDIcARDycWBBEPKBgwBUQaDGBt956i84//3w666yzaOfOnYVq8uqrr9Lpp59OF1100VThL2QYiSshABGvBOtsRiHis3FDLhAAAUngww8/pMsuu4z++Z//mZ599tm5sDzzzDPiFPzVV19Ne/funcsWMldHACJeHdvCliHihZEhAwiAABF9+eWXdP3119PRRx9NTzzxRKlMHn74YVqyZAlt3LixVLswVg4BiHg5HEuxAhEvBSOMgECvCGzevJkOOeQQuv/++yut99atW+mAAw6gu+++u9JyYLwYAYh4MV6VpoaIV4oXxkGgUwTuueceOvDAA+mOO+6orV7ffvst3XTTTXTkkUfS448/Xlu5KCidAEQ8nU3teyDitSNHgSDQOgKPPfaYENH169fTN99804j/n3zyCV1++eV00kknzf3beyMV6FChEPGAggkRDygYcAUEAiPwxz/+kU444QS64ooriEU0hGX37t3iKviFhQX6y1/+EoJLvfMBIh5QyCHiAQUDroBAIARee+01WrVqFV1wwQW0uLgYiFemGy+99BJ9//vfpzVr1tAHH3xg7sS3SglAxCvFW8w4RLwYL6QGgS4T4Iev/PCHP6SVK1fSn//851ZU9amnnqLly5fTddddJ66Yb4XTLXcSIh5QACHiAQUDroBAQwT+7//+j370ox+Jx6D+/ve/b8iL+Yp94IEHxBXz4/F4PkPIPZUARHwqovoSQMTrY42SQCA0Anzl909+8hM64ogj6De/+U1o7s3kz89+9jM66KCD6L777pspPzJNJwARn86othQQ8dpQoyAQCIrAli1bxD3Yd911V1B+leHM119/TTfccIN4EM2TTz5ZhknY0AhAxDUYTa9CxJuOAMoHgXoJPPjgg3TooYfSpk2b6i24gdL4kbCXXnopnXLKKfT888834EE3i4SIBxRXiHhAwYArIFAhgd/+9rfiArBrr72WvvjiiwpLCs/0rl276JxzzqFzzz2X3nzzzfAcbJlHEPGAAgYRDygYcAUEKiDAM1CeiV5yySW9vxVrx44ddPLJJ4sXtuzZs6cC2v0wCREPKM4Q8YCCAVdAoEQCb7zxBp199tliBsozUSwJAX5hy3A4pBtvvLGxJ9Al3rRvDSIeUMwg4gEFA66AQAkE3n//fVq9ejWdeuqp9MILL5Rgsbsm7r333tqfBd8FmhDxgKIIEQ8oGHAFBOYgwO/fXrduHR1zzDE0mUzmsNS/rPxWNr7Yjy/6wzKdAER8OqPaUkDEa0ONgkCgMgIbNmwQ799+6KGHKiuj64b5Yj++6I8Pgp5++umuV3eu+kHE58JXbmaIeLk8YQ0E6iRw55130v7770/btm2rs9hOl8U/R1x88cV02mmn0csvv9zpus5aOYj4rORKyrds2TJi8bb/eDsWEACB8Als376dDj/8cLr55pvpu+++C9/hFnq4c+dOOuuss+gHP/gBvf322y2sQXUuQ8SrY5vLMv9uts8++xgizt95OxYQAIFwCfzud7+j448/ntauXUuffvppuI52yLM//elPdOKJJ4rXsfIz5rEQQcQDaAX2LByn1QMIClwAgRQCr7zyCp1++ul04YUX0rvvvpuSCpurJPDYY4+JZ8zzs+b7fvYDIl5lS8tpW5+NYxaeExqSgUDNBPg0Lp/OPfPMM+n111+vuXQU5yPAz5rn6xB+/vOf+3b3YpsQ8YWFBdpvv/3w1yADfTaOWDTfFrlPYAEBJvDRRx/R5ZdfLk7j8ulcLOERuPXWW+mwww6jRx55JDznKvZIiDiLBpZmCajZOH4LbzYOqnT0CUWiv5/89i1+ihhfZPr444/3F0RLav7ZZ5/RVVddJa5T4OsV+rJAxAOK9PLlywPypt+uQMT7Hf/bb79dvAebnyKGpV0E+DoFvl5h5cqV9Nprr7XL+Rm8hYjPAA1Zuk8AIt79GPtqyKJ98MEH02233ebbjW0tIsACzkLe9QsQIeItapRwtT4CEPH6WIdQ0n/913/FL+H46quvQnAJPpREQN0KyKfa+ZR71xaIeNciivqUQgAiXgrG4I3whWonnXQS/fu//zvhdZjBh2suB/miN774jS+C69ICEe9SNFGX0ghAxEtDGaQhvkWMbxXjW8Z2794dpI9wqhoCfDsa35bGt6d1YYGIdyGKqEPpBCDipSMNwqC66Ikf1sIPbcHSTwL8gBh+UMwRRxxB/OCYNi8Q8TZHD75XRgAiXhnaRgzzY1H58aj8mNQ+3X7UCOwWFcqPbr3iiivohBNOoLY+AwAi3qIGB1frIwARr491lSXxjItfTMIvKOEXlWABAR+BxcVF8dMKv2SFX7bSpgUi3qZowdfaCEDEa0NdWUH8SlD+7ZNfEYoFBPIQ4Ned8mtP+fWn/BrUNiwQ8TZECT7WTgAiXjvy0gp86KGHaMmSJbRhw4bSbMJQvwg8/fTTdMwxx4i3SX7xxRdBVx4iHnR44FxTBCDiTZGfvdzJZBIPvHv37p3dEHKCQESADwgPPfRQ2rx5c7BMIOLBhgaONUkAIt4k/WJlv/DCC3TqqafS6tWrW3MKtFgNkbppAnfccQcdeOCB9Ktf/appV5zyIeIOEmwAARJv9AOHsAns2rWLzjnnHDr77LPpjTfeCNtZeNd6At988w39+Mc/Fi/EeeKJJ4KpD0Q8mFDAkZAIYCYeUjRMXz744AO65JJL6JRTTqHnn3/e3IlvIFAxAX417WWXXUYnn3wy7dixo+LSppuHiE9nhBQ9JAARDy/ofIHRtddeS/y2v9/+9rfhORigR5PRkMaL6Y4tjoc0GE3SE3R5z+KYhoMRce0Fh2g9b5XffPNNOvfcc8WZoL/+9a95s5WeLr+IT0Y0GI4poz1kOjdPY5nWEGXBExoNBjRQf3l8LVinyWhAQ0+PSNsu/BINRfNL+Tf10+18XE51HW6RxsNBjhhnpYv2cd3y8M9sMWXvzPLbLQsi7jJpcsumTZvEBUYPPvhgATc45nKQ9mfiMcPtZ/60ObdqwpAzx0zJco8FPMZZ4qSPxfp6piOiXuWxyhwzvY7I/us73ihuKypAixXfJ07RWO0rw+tStJGvyfje975Hl156KX344YdZSSvZN7uIi8aRLk622BmNZUpeKcRa5zMaoiYUhhBq6XOjioQ/V9RkWl/SWRuRwSSPzzk7kujg+uCUwtuMUV6Rs9JZtk2beSpFRJYNdSA2k63UIi2/U9PJHRDxKYBq2s3Ptz7ggANoy5YtM5S4SDwBSD+gnCLi0aCu2qP30x4QNGFQDot+boxV+cdNZcP+FH3cLttOFH0308p+oLLmHYNEOuPAXNqRfdS0mbjBfH3jctr2JKdc0+Ojl5G2buef8j3neDrFSrz7ySefpKOPPppuuOEGqvNNeHOKuC9APCa7M1ajsRiiHDNIVjwdwWyISVJecxuYuZ+IG0N6x/F2zsGAVEMX1thnbsR5OnZUViJCRcvXuKYInPSZ07m2pd+LxAeXse+6qPNGVQ+jklH6zA/ZgdyBUW5P6iwKkbN7L3u7jtZR/sz+pTmf5rc/PUTcz6Wurb/5zW/Ec635+dbffvvtHMX62qUyp4uE2ub/zBpjjH2escvY7zcvtvrGzbTkWeOhk0f3SfUrb5+MxkhDrNmaZGgOFRZXZVdPtLhIYz57aNkTPLLK14U/9l35oD6jWsb7nVpHp8iLj/tibNXr4ZrO3HLfffeJd9LffvvtmenK2jlVxEVjcYCPaJIhxHpj9AVsNHJP8RgV8gXGty3KNL2T5O+shh/aF71O2maxmrVPppVCa7cL4be90ceVtxnp9Iaco27CpiWS6uDHFne7cs53WbbdMVVH94m44Trbs2NZqn+Ow9GGNL/96SHifi5Vb/39739PK1asoB/96EfEz7UuZeH2ZgmJtJuj73BCq0+KMVFr1Mb4Y7ftuJ/lExOz/6TX3vYhPaW5x87nHYPMLLL+Dj/Zn0x//eOcKDPOn83cTKs7oo95yXbhv6NPeX92zPYlKWW2tdtuu40OOeQQeuCBB2YzkDPXVBFXdhy4omGnN0wzuNFsWTX8KXmTWaYqPflMDVpmIFOC5elwaoaqXJUl+xun8orZ2PVV+7LyezuQNWAoOyKt6Ah250mpm8rIn8KmK+Lm9hSRs2I1mpjpRLvwsRdnMvwdL6+Im/5FFbL8GY4n/t/yrXS23zoe3zpE3Eelum1//vOfaeXKlfTDH/6Q3nnnnUoKyj92aH1FjBHad+GZ2a6Tvuk5QFUiHotYetXscSS/v+447B+P3LFClGEOdpaDUX/3pBF937PdMsAEaDyUDM089rhqfp9W/9HETM/lOvWxxgF11lW67fJwfZ9vy5dffknXXXeduBjzqaeems9YSu6cIh4FUm+IAo52SlQrwG6MvMuA68lr7NfEVQQ9Eom09iLy6r5pvshVFSw76Pb3yE/9dI7yXT+9ntIwVAPhT9NXWY6+P3tdcY24p4gk2xiOx9MvzhH+2gORXde0GJsHKHE8bN4iZmZaNTs3WQig8VWhIj65/FMHI2YZXn+i+OgDmTed006SDRDxhEWVa3xB0QUXXECrVq2i1157rcqiPLbVuODZJTZN63+ynxrjjzZ2Katif0Yf1scCvc2q/O5n5JfTscyUcZt3xqMknUiTZUeNdZ40Iu9wSENP3fz1sHmb46+057t4mk/Lj2jEF96KMU/+Tqi46mWxDf27mAgYY5VkJ6ujrzOTfFwTevnX+LbINWvWiIcSvfjii/kz5kiZT8RVIDlYCojYpsTGLMkBqYRQNQRPXhEQtd80F8NN2210Iicvb0gaj2gosSEZND3o5n6VVzaeOBv7rzg45dkNI7ER54/yeOvsYRMX4RkgMn/vVz4Km5aIi216g48asMqT2qBlx7Pr7+tQqlPY9c41E0/zzzFm+5PWEe10MVXvCkTci6W0jZ988kn8Csg//vGPpdnVDYm+HAmM02w4obc/6Ray19U4Z4w/c9rMLlHtLdKWk/FI9VH9oCFtXY6JMu9wGN2GFvVJO4+XrXI1+pyMPFohWOljkJVJ6Yb4yU/VI/IpOgMX+yayqjSaHfY5HtN4u5lGxVBm51vOrHFSM1XGKj+U6F/+5V/o/PPPp927d5dhknKJuKgoB3I4lhcqcNRSAqoCrAsjeyoFayxPq4z5N3H3FJCzLYZvgs8ULm+n5UYfBUf4nTQoowNGF4npjVL6PRIXxsXbp9Sd6xGnFWGSnc7cpphY92ha/hlR9g4QWt1izj6bNm+7sUrGcYNP7WBWOq1+XG/uVEns7bhFtbHr4eVp+ZfXn7zpDLDuF4i4y6SMLfzUq/Xr19ORRx5Jjz32WBkmp9hIaYOqrzh9NcMct9N4TErSGWNI3LajfpJnnPOl8ZQTlyj6y1D0Nc8dr3EyuZJef94vDnTsgSmyIMe+iXkWVbeeNVbp6aI+aRcjuXE9fLNv6Zt/LOExLxrDdR9EOda44cTM5KHqOI2FXp0y1p999lk66aST6PLLL6ePP/54LpPTRVw1Sg2GuG9bCDGDNKF4vRGgWUQ0IbUCp8N0bdhl+EVR5rPTit6anL61A603An09ckIeQVrlaSym+8opZH7nIMXXecW25CAj+2CJ07HtpOF6OYp6JWlcn3mL5BYPUikdz0knqseDW3K6S9RT9FhPLERRyUMWhC95/MvrT950ouD0fxDxdDaz7lHPn77nnntmNTFDvpQ2qA7Yx9wW7YNuVcz0fssiI8UoEiLR/rT+a/VPtuzto6rIHJ9KePPZSas/F5TUzxZYsTeaPaeWI+o6bVyxxVhVUPnFn1NspPbppA7Cf9+4LMYWewKjxVvlEen0uCk/q/18/PHH6aijjhIHtrPehTFVxFWDcX5b0CutQET1FXmi3y5UfqMhWOk5m7Hf4aYCrnbIxudreEpkjH1Gx5K24iM8rSEqX1UpyadVnqi72zB0kTbKj4544zIjw1yevU2KdkpjMuoRGbG2eTkKf6d0lJlFXMVG56p4qX0JSbFm+SzrPMU/kUfrfLFJWcZMBx+xDXcFIu4ymXXL/fffL67SbeZNUP42KPqJmkhEbcvpi3aFPeMWJ3Ft6f03EUp9fBiM+KykfwzJ9EP4GvUVfd32Nf7urz/vjse7KfX3jinCvrQ93V+dR+SYzlJfj/2O/Eub6KjYxfWQPB1fHNsWj6juHBt7zNZcqXyVD2z5eQhbt24tXNZUEV8cj8Vj6TJFXAmAAu6hoTcEtS4akcrjfOqBt8Cro2jrrLGsvZ1WRNk4DRY3XpFBCY769DG09jkNQ8/jKV/sltvjW8VydUDOGOXjRivyjGjMj0pUjdjyRbHVPcolkno5InM0+NixVI0+Kl+UJ9aln2YnSmER1SMOH9dBO5tg+B5/yedPPLuY4ndsNmUFIp4CpsBmfkkEP/zi+uuvJ75Kt5nF0wZ97S1q12b7tTy2+pram/QBoejJWT+RgNuteYCa9FF7n8dXVYj4lPvjMUQdQNht3ZPHTiLHXm2Mzah/4q9hWHwRdtRY5OxOqY8oS2ci0/nYi7LVqfPIPpdppI18t59M57jj3eAZV0T70Nh481WzcePGjbRkyRL69a9/nbuAqSIeW7IbsF3RCKTdWFT+pCEkAXOCoRLbtiOBSWxH4B3hT45sk7TuLN/XMDJnwPZBg/AvKcs4wo580stX1eJP2XlkXqMh6om0daOTCMaycUme7tFnwtkwkkMkowFC65CSk36EGqXhOkbpkkfiJnFNSpbbHBZaPURawVPv1IkFfS2PP5w+bzrdtr0OEbeJ5P/+3HPPiZdD8EsimngMpemp2QbdtqGlnjKGORMZLWu8ardt7ZS1MU6oTsFtP+pLwje1PTaYrBhjQbzZ1+/infEkIDEr0/sFT46r9riU6Zeor9l3RXquk1a32KNUxrLsxE/OoXxNRDu2HRsUHT66Qj5DeJ0xm33WdSTJm1lfvdyK1vfu3UvXXHMNHXvssfTMM89MLaUEEdcaUQTKbgTsRQxGC3peEY+FL46wL+CqrtKfOKlzAKDSmZ+ijCSTudMn4prYmYnt8rW9TkPKL+bCij1ACHtJ4+M0MWet2Nlm4tKAsBcfLHHDjzqWU3+tHcRlR2nj/PqBj+a3qIc5EMQmrBXTHz7A8Ptjpsvy2yog+goR93PJ2rpz505aWFig8847j/jlEGEssn1w15ZtQmt3Pge5LTptO0ro6b/OWGf3UTF2mG1b+KGNNUlbTfPN38YT9yMx0mwm+/S80bo3ncrBtrL9VSnVp31wocZS/tSLEtst28qG/EyvRyqj6KCA42D7keTxPPwlyqfOakjfJH9ed+JqOlrLt/fee48uuugiOv300+nVV19NLXNOEfeIUNzQzQYpII0mye8w1qzUOEoVg34CVB41RgFO62BpVYw7ZdSAvYKii0uyngRSlq0eLuD6muQx9g3HdCc/dlCVqbdozV+jsam0/KnSx0yTGbA6SlVJlDlhy96odlb6KfkmzLgwuc1xxxno5nEsz8BU3D5EXDJbtmwZrVu3LhMgDzYXX3wxnXbaafTSSy9lpq13p9nnnXY4zRm934l+aYpbkj0am1TfjQpK7dcqHQvaRF5Yp8YIs/9EPwXqY0FSqLWm6qr7yH7x92hf0bEzKmH6mKKPzWqs1N0r0kettEps4/vDpX3BKYpPwkwxMLVH90SsRzbt9iCFnMfrKfkdg9VueP311+mMM84Qz1P43//9X6ewmUVcibJjUWyIgjqKbk+IGq0UwQRQ6hGPCI5MtzgeGa/SS0Br4hh3Cmvb6C5x8YgdLL/PWVt9DTMrPfbVRiClQ85bPkRcEmRx2WeffcSBqC3mn332GV199dXitN/TTz89L/LS8xtjlCYGSjAzP+cfNFLrI0VRXdiWjIecIRZ+NeHJnLl6ilAHHiK/Luia7bTxUt+u1X+6iAvPkwv1ZjxYsGujxnrNlTiJ5GTWT+0U+UryQdkM4ZOfp/BP//RPdOWVV9Knn34au5RfxOMsWAGBZghw50yOutmH6GCxgg4LEZcx1oVOF/Nbb72VDjvsMHr44YebaQwoFQR6SuDRRx+lww8/nG655RZBACLe04bQ1mqro/NYXHyH6SVUbt99901+BtFnKFinf/iHf6B//Md/LIEyTIAACMxKgB9XzNegQMRnJYh8nSaAmbgMb3ywZJ1Wv/nmm8WrQut56lqnmxoqBwKFCPCtm/yAGH5NLy8Q8UL4kLgvBCDiMtIs4vppdD3+/KrQK664gk488UTi28qwgAAIVEeALxr93ve+R3zrpv6oVoh4dcxhucUEIOIyeHmuTn/77bfFbWVnn3027dq1q8VRh+sgEB4BfjXvv/7rv4pT53/9618dByHiDhJsAAEiiHjxVvDCCy/QKaecImYKH330UXEDyAEC8xCo6E6VeVyaJy8/9OWqq66iFStW0P/8z/+kmipXxIvexhFfJOTeKiAuYJr5oiV5v6A3u7gFwy0vldAsOwQHfxni1ogcV1P70/HV2H67s7iZnUfdc6nfm56dQ94Xnu1fvttVPOXUETetWIi4BqPgKv9mxzN4flvZrC91KFikk1xeAJndFp1MTW5wxgz9ttbp/b6Z8YL9Mm+Rkwhdf2fu97ljEo1XOcZWn0k/v6g2zl0xPgvlbuP3DPDjVx955JGphssV8YziCgfRadR+43pn5XV5C5Im4o6dKNhehecyZOfRL+jJXncHivS6an75qxNtlenM26n4JtJFmvBz07OEXN0nGh8gWffOe7bH5Vh54+2Zvpo7szoDp0xnY9rxfROxnrGT+uxlbYOIZ9HJt0+91GHbtm35MpSUSrSxAb/iMs8BaEn93dOvfONGWp9y+4UmhIuL8hGmqS/paGi84IfIiIdZ8RhYkGPcj6PxOCe/tKfpSR2YPtb5h32bn6yLSpvoSkkNNMPMAw88QAcffDDxG//yLhWIeMFg6kdyloiYnYCP+FzbEvQi6xsrRPRuWhkU3ud2DvUUJN8RZF5syTPQjU4pDhg8DUk12LT9tig7Bx6mX6LBqhZm7mLHjMdGivqr8j0i6m+gdqPmQrI6m85Sy5sZT4uTqk8qIyu91emNONhMZvgOEZ8BWkqWDRs2iHvKt2/fnpKivM1KwOV7tqM2q9qWtxhzwPYmiTdy2pSDdq2PxcmtFX9f40Q+Hzxlib6h97WogIbHC7deru/ecVi4r40XFi/7qz2Wqf0y5nJ88Ic6agdpMbK5WmOoWz9Vcnmf/Iz0Y445hq677jr66quvChmuTMRtmN4gikHeapS8zcgsAyA3uY3DrK1Kqz6j9NajDc2DAw6+2zFNu9o3JTK+BmE3Bs6mNQhuDEbVeL+nA8aNVZVlCZbrvzoDoQ5QsgXPzu8KoORnbldMNRax/1YM2W8fH89BhGUt4mHZcxJVvwEiXi5jfrrb2rVrxe97/OSpKhbuX25flu3WHFP00nmMKNJf3LFCFxG7b9nfzT4l/Yj7u+6WEHa3LCNJ9CXO39h44fMq7zbfWOPPG9dT3y00RHGKYqkPsmK/9ghrPW+0LtqNlke2o+w2oSX3WMy/iR+punLlSvGM9Pfffz9/Ri1leCKuBnohAnaAp4m4mnnLRxqORvYBgVbzGVZVcFMDKDqRJUBKxNWnXa7Ioxoh77TrbGeY7Tv77htAdGuqfvbAw9/Vi0acuvvqrBnNNcDpRm17ohNaTMWxyvT6aG4UXoWIF0aWKwNfacsPqTjzzDOJX5hSzhIJtX5WzzIs27bbjvyzYCtz/NU//njFJc6TrPj7oBQe0TeV4OQ4qEi6THPjBdc7GVMiAc3huxhf4oP8/P67nDmvPnYya9UWlAj7Yp7ERE6iNJG3x5+KxpoPPviAVq9eLV5u8tprr2kOFV+tTMR9QuDfpiDb8FUQks/heOw9neVWW9pKGro5I07Sy3RJQ0z22GtuA7JTiKMP613CSbn82xEfVDhl2Y0m6shxOrHfbqiqbG0A4E0FBgE7FnF5bEeUaYukh2mcVsZQPwhQ7G1u4rvaKYoammdeIh7inel5B4TU3woVp+KfEPHizIrkeOWVV8QLU3gg4wFt1kW0p/jlGFOs2H1LJJd9SGuSU4y4u5UPdp/yfTf6WSQQnM7eLg8uuN+zf2n9P+nzcf4axwt+1eiQ+2gsyAkbs5+njB0iudznY+Xd5ikrLjVj/PPHVys7SiDGMCux/+ArLrXQyjfffEM33ngjLV++nCaTSaG8aYkrE3GLQ/HfpqPB3KxmxtGe/cYwQwBGNPE27ikdRKMmGmVWA+K0Pp+5YcX5PAOGkSdpVHGnzJqZi0ab0cE1/4s0RDUoJT6IyvlfJmP476azuZmdW5050aJs2xN1VAd6SYWK1CfJlX8NIp6f1TwpeSDjAe36668v/FugGHC5b4k2kxzsewf/aDxQZ5TsPpmVx9kX9+d5aq4EeEQj31myuB9kjVEhjBeeMc05OJd+2pog6cl95lgTsbE422OJiL8+zvsLEMX40ip74mJhkZd9ccfTssaaUOq2VQAAFn9JREFUrVu30oEHHkj33nvvnA3HzN5CEU8g24IQVy06IjNj6mlshsAmF6s5nVZvKGnrWYOJ3hhF50zqIGfPUqREfQZup1aNja/d0xfRMM1Kyt1R/XPVw8kvOXHe4VA/XZbSEePBRnlmppN1mjLA6j7Y9jLq4nR85UIJnxDxEiAWMHH//fcXvio3y3z+gTdLJD0lxGOGbOe5+phvzBCTDjkOeH2Ny0n3L4zxImGUq69HLPQun1jQ1uL6a9sKrKaNmbqJyUjyF2kzHPLGRzc0ZZ1fWMIvC9q4ceOUlLPtrkzE8zdubZaVMWAn7xRPBDANvhA3R4SkSOsDv0iXETwdaZ5GMX0mLi2KcpWwizqr09EpndoWfmHGc1CiHM7ZAbz8RN4Rjfj2HDX4CEamOKui3Dqb6XRuYp1taswdH2wRjwuqdwUiXi9vVRrfH3vooYfSQw89pDbN9Jl/4NVEUrQ9rd2r9q+3WadvafkjT502PaUGPl8TG659ZU6JkJO/zvFCuwAv8dkea/U68Lp9ga9nm8NZ1dr65HR6nHKsa8OPMBb7nRV/264avy139K/PPvuseCQxvzqUL+ysaqlAxO0AStedhsabRQA0Eddr6RvMrW0xfDvfUIoQzyQ5wEq4zfSm2OgmfOsi77TAWf4JO97GqDVqz36XlfRV1SO2m3YhT5GGbbRoxUQvT3Uwtc+i49TZn47rxAdi+m/dRn2UWcVD2E0ZUPUOZfivjMz/CRGfn+GsFr744gvid5cfe+yx9Lvf/W6qGdm2crQVbjd2H9bbr76ulaqPG+44IPuHIyQj9b5w1y+73af1d9m0tbFC80lfTctvlCPGhJSxdubxwvwJMeEkx4CYteCqJl9qPNFqYOyPtmf5ZMdQM6VW3TipPe5n4re7j7e4fP3p1NY333yTzjnnHDr//POJH0lc9VKJiMdXCKoB1hckb8204EcdSgz6KmhqgI/yuvCVgKhPTsiNJmq8ev7IvvZrrNcjtTFXo/DZ1MtUxvRPz35fo7HL96WJzXpsxvu0FZtfUobkZwwC0W/zKqSxGafOOnvVyZPZt14m14EHP92mvp/LSHyKSxQrMm/KoGQmnekbRHwmbKVmeu+99+jCCy8Ut+AUvYI3s3/oXup9xWnLMqHeJvV1udcV2SSNvc/qG5Efjq/skxqztJmuclu0fa3TOPk9/caXRtnTb4ONt3lWknolO8W2aHyO90cc49/6RX24r3N/dUVctxFb1uMSb8xaYbbqQMEcN4T9jIsDY79TzGey0/LwC4H+4z/+g04++WR6/vnntT3VrlYk4tJp0diiWZMpCP5KifRKsLUOJSHLI1vdjgM/Dry/s+infp28fpfirSK98i3eaq1oPsd7Yp/iLcaKz6630QjbqpHag4NhMjrD4c4AnNkCx8YYDJR9yU9nrQ7MtOSyULvO4rsUZlE3q/O43PVO7StXPxBIZjeOHxaCeb9CxOclWF5+FnC+l5YFnYU9z+LtQ56MRrqo7Wb1k7T26+RRDVTr/25e6ZDhg3Mhq9vXzfQpM8Uaxgv2nn1RY4isnz5OT2g0HIunuvFYItLydTbGgbvs88zPGG80bp6wWZvkGDIY8UWOcpfwRR1ciI1RGqNsLa2Kl2WZv9q8PUnopz/9qXg173/+53/6dle6rToR5yDopz0LiLmosS0Owp4587I7hfqNKFVwYpQpIh/vd1f0RuHujbakDQKp4h81YKsBTWs0dr0df3J2gHQ7PjFNOpsbV+1MhxZzq1qOm84GT4zVfbyikw9H8lGa1sGHY6eEDRDxEiCWbIJPrfMpdj7Vzqfcs5ZpfUjkNYQuy5ra5+sXrsja/Up8F/3CHL+UVd1XmVZPZ9uXPuh9S8+vbOqftj/6PrE+83ghhVH5EtdTH++MPs2ibom42i8+1WxdKKf704fjeDTjtg8A1JkI5ZieLxqj9V3T+GTxvfvuu2n//fenX/ziF3opta6XKuJc2XiA1ylpVYoDrQ32Io9KHwdT//3KbbhsMh2+nl6ux37Z5arvqvzYVzefkyROG63YBx68mesTN2rXZnLaLDGmGk0qK+Wz/jm8hq7RL0bT9+VZj31kP6SfxpFxjtPpym9Rk7QDmjRfRpPkiFdvA/FpxYSPWDPSWEfxVtJZvkLEZ6FWTx6+6I0vftu8eVTwaWvJ+MR92WivXtc9/VXrJ9P755DG1tMizT4lC439iNq0Pc7wfmP80nxgCyr/dH80O2WMF9ZBkG88Zt/M+mgHJWmCmjZG6NvZqFW+/J7U0SzXG2Cx0ee3nlrx1bc9+eST4u6dm266ib777jt9V+3rpYp47d6nFig7X94gppppaIev0TTkSm+LhYiHH3p+ScRBBx1EfHtaSIsUBfXTjz6rTmaO6hQ0+y37+8T/HIYcFWtqvJAHDUn9MsVQP+iODkKa8jsH0tQkL7/8Mn3/+9+nSy+9lPbs2ZOars4dHRXxOhGirC4SgIi3I6pff/21eFBMmU/AakfN4WWdBN59913xxM2zzjqL/vKXv9RZ9NSyIOJTESFBHwlAxNsVdfUs6tNOO434ka5YQKAMAnztxTXXXEPHH388/eEPfyjDZOk2IOKlI4XBLhCAiLczivxSFX65Cr9khV+2ggUEZiVw2223iWsvfv3rX89qopZ8EPFaMKOQthGAiLctYqa//LrTFStWiNefVvm0LLNUfOsCAb5w8pBDDqHbb7+9FdWBiLciTHCybgIQ8bqJV1Pe9u3bxXOrN2zYUE0BsNoZAnwL43HHHSduYfzyyy9bUy+IeGtCBUfrJAARr5N29WVt27aNDjjgALrnnnuqLwwltIoA/wRzxhlniIcJ/e1vf2uV7+wsRLx1IYPDdRCAiNdBud4yvv32W1q/fj0tW7aMnnjiiXoLR2nBEfjwww9pzZo14r32r776anD+5XUIIp6XFNL1igBEvLvh/uijj+iyyy6jU045hV544YXuVhQ18xLgg7kf//jHdPTRR9NTTz3lTdOmjRDxNkULvtZGACJeG+rGCtq1axedffbZdN5559XytqnGKoqCYwI///nPxc8qv/rVr+JtbV+BiLc9gvC/EgIQ8UqwBmn0ueeeE+99vuKKK4jfRIWlewQee+wxOvzww+nWW2/tXOUg4p0LKSpUBgGIeBkU22WDB/ojjjiCbr755nY5Dm9TCezYsYNOOukk4gO0Tz/9NDVdm3dAxNscPfheGQGIeGVogzd85513EsefP7G0k8Du3bvp3HPPFX+83uUFIt7l6KJuMxOAiM+MrjMZeUbOM3OeoWNpBwGebfOsm2ffPAvvwwIR70OUUcfCBCDihZF1MgP/Rs6icOKJJxL/do4lXAL8ezf/7t23gy4h4gsLC+L0EQ9c+AMDtIH9iPsEFhBQBN5++21xFTtfzc5XtWMJh8C9994rrjjnK8/7uAgR72PFUWcQAAEQKEqA7yvn+8v5PvNQ3iddtA5dST+ZTMS93jfeeCPxvd99XSDifY086g0CIDAzAX7i23A4FE+A67OAzAxwjoz8dDV+5ezq1auJn7rW9wUi3vcWgPqDAAjMTICfxc7PZOdns2OplgA/1/zCCy8Uzznn551jkQQg4mgJIAACIDAnAX5L2mGHHUb81jQs5RLgN4pde+214g1j/KYxLCYBiLjJA99AAARAYCYC/N7ytWvXiveY8/vMscxP4Gc/+5l4t/eDDz44v7GOWoCIdzSwqBYIgEAzBN555x264IIL6MwzzySc9p0tBg8//DAdeuihNB6PZzPQo1wQ8R4FG1UFARCoj8Arr7wSX4D1wQcf1Fdwi0viMxjHH388XX311fTFF1+0uCb1uQ4Rr481SgIBEOghAb4Vavny5XT99dfTV1991UMC06v8xhtv0FlnnSXOYLz77rvTMyBFTAAiHqPACgiAAAhUR+D++++ngw8+mO64447qCmmZZb7X/tJLL6VTTz2VXn755ZZ5H4a7EPEw4gAvQAAEekJg8+bN4vfehx56qCc1dqv53Xff0U033STutX/yySfdBNiSmwBEPDcqJAQBEACBcgjw773r1q2jY489lvp229Qvf/lL2n///enuu+8uB2bPrUDEe94AUH0QAIHmCLz33nviASYrV66k1157rTlHaij58ccfF2+Fu+WWW2oorT9FQMT7E2vUFARAIFACLOAs5PxEMn4yWZcWft78ySefTJdffjnxW+GwlEsAIl4uT1gDARAAgZkJ8Kn14447Tpxqb/stVouLi3T++ecTv/ntzTffnJkJMmYTgIhn88FeEAABEKidAF/0xg874Yvg2rbwk+uuvPJKOuGEE+jZZ59tm/ut8xci3rqQwWEQAIG+EODb0Q466CDi29PasGzcuFE8Q/7RRx9tg7ud8BEi3okwohIgAAJdJfD111+LB8XwA2P4wTEhLvfddx8deOCBtHXr1hDd67RPEPFOhxeVAwEQ6AoBfnQrv0Ob36UdyoNRnn76afE0uhtuuIG++eabrqBuVT0g4q0KF5wFARDoOwF+qYp6RCm/bKWJha+mP/300+niiy8mPBe+iQgkZULEExZYAwEQAIHWEOCXhaxYsUK8/pQvJqtjef/99+miiy4St8O9/vrrdRSJMqYQgIhPAYTdIAACIBAyge3bt4uLyTZs2FCZm/ziluuuu46OOeYYeuaZZyorB4aLE4CIF2eGHCAAAiAQHIFt27bRAQccQPfcc0+pvvEV8vzilgceeKBUuzBWDgGIeDkcYQUEQAAEGifw7bff0vr162nZsmX0xBNPzOXPI488QkuWLGnlvepzVbxlmSHiLQsY3AUBEACBaQQ++ugjuuyyy+iUU04hfuxpkeVPf/qT+K39qquuor179xbJirQNEICINwAdRYIACIBAHQR27dolHnt63nnn0e7duzOL5LQLCwv0gx/8gJq66j3TQez0EoCIe7FgIwiAAAh0h8Bzzz1HJ510El1xxRXOS0g++eSTeNb+0ksvdafSPakJRLwngUY1QQAEQOCxxx4TrwO9+eabBYyf/OQndOSRR879+znINkcAIt4ce5QMAiAAAo0QuPPOO2np0qV01113NVI+Ci2PAES8PJawBAIgAAKtITAYDFrjKxxNJwART2eDPSAAAiDQWQIQ8W6EFiLejTiiFiAAAiBQiABEvBCuYBNDxIMNDRzrDoFFGg8HxINm6t9wTIvdqTBq0gICEPEWBCmHixDxHJCQBATmI8AiPqRxmkovjmkIEZ8PMXIXJgARL4wsyAwQ8SDDAqe6RQAz8W7Fsxu1gYh3I44Q8W7EEbUImgBm4kGHp6fOQcS7EXiIeDfiiFoETQAz8aDD01PnIOLdCDxEvBtxRC1AAARAoBABiHghXMEmhogHGxo41gUCi+Nh+hXpvqvVR5MuVBt1aAEBiHgLgpTDRYh4DkhIAgLlEpjyG3m5hcEaCHgJQMS9WFq3ESIeWMhWrFhRbObmm81hW+UM169fX6zlTEY0iGfZKb+RF7zNjH3ggRh/YDBLG+CxBkv7CUDEA4shjo4DC0gp7kxoNBjQML5RHDPxUrDCCAiAAEHEA2sEEPHAAjK3O3LWPRxP5FPbxGwcIj43VhgAARAQBCDigTUEiHhgAZnLHSXgyaPapl7oFp9yn6tgZAYBEOgJAYh4YIGGiAcWELgDAiAAAgETgIgHFhyIeGABgTsgAAIgEDABiHhgwYGIBxYQuAMCIAACAROAiAcQnGXLlnlvE+LtWEAABEAABEAgjQBEPI1MjdvXrVtH++yzjyHk/J23YwEBEAABEACBNAIQ8TQyNW/n0+j2X80uoDgQAAEQAIGWEYCIBxIwfTaOWXggQYEbIAACIBA4AYh4QAHSZ+IBuQVXQAAEQAAEAiXQGxHfuXMnbdiwgS6++GI66qijaGFhgfbbb7+g/vbdd1/6+7//e+LPkHxjVsxs9erVtHHjRmKWWEAABEAABJon0AsRX7t2La1Zs4a2bdtGu3fvpo8//rh58ikeLF++PGVPs5uZ2VtvvUVbt24VYs5MsYAACIAACDRLoNMi/uKLL9LSpUtp+/btzVLuYOnMdMmSJcSMsYAACIAACDRDoLMivmPHDlq5ciV9/vnnzZDtQal79+6lVatWEbPGAgIgAAIgUD+BToo4zw5ZXLDUQ4APljAjr4c1SgEBEAABnUAnRZxPoWMGroe52nVmzcyxgAAIgAAI1EugcyLOF1zhN/B6GxGXxsxxsVv93FEiCIBAvwl0SsT51ie+DQpLMwT4DgDcftYMe5QKAiDQTwKdEnG+D5xvI8PSDIEtW7bQpk2bmikcpYIACIBADwl0SsT5QS58HziWZgjs2rVL3I/fTOkoFQRAAAT6R6BTIs5PFQv5QS5db1579uyh4XDY9WqifiAAAiAQDIFOiTg/HhRLswQQg2b5o3QQAIF+EeiUiPPzxru6LI6HNBhNgq9el2MQPHw4CAIg0DsCEPEqQr44puFgSONFn/EJjVL3+dLLbRDxdDbYAwIgAAJ9JQARryDyk9EgY9acLuJCqAcD0l9Jmnd96D9iqKB22SYxE8/mg70gAAIgUCYBiHiZNNnWZESDwYjUie/cwjzlVDlm4mUHCvZAAARAoP0EIOKlxnCRxsMBZc+K02fiWa5AxLPoYB8IgAAI9JMARLzEuAuhHY5J/hTOYu0T9GkiLvPlPY2uz/pLrMrMpnA6fWZ0yAgCIAAChQlAxAsjS8sgZ+GG+IpT5J7tzu/eyel3Ir/Ie2fi4gI6PW+ab/Vth4jXxxolgQAIgABEvII2kH1h27QCIeLTCGE/CIAACICAJAARL7slTEZTfhOfViBEfBoh7AcBEAABEJAEIOJltgRxetu8RYwvchOnwp1T6Fq6+Hd0dga/iZcZEtgCARAAgS4TgIiXGF0l1vbV6d7fs6NyxT5HxM0HxYjT89FBgGEbv4mXGD2YAgEQAIH2EYCI1xCzYiKuO5TcsqZsqE89VUjruLAtpGjAFxAAga4TgIhXEGEhtOr0+WgiT6enPMxFpDVm4pFD4qExyYzcEG9rXwVVmNkkRHxmdMgIAiAAAoUJQMQLI0vLkNxKZpzyJir2m7j6Xd0SdkPEhQuqPNxilhYRbAcBEACBrhOAiNcQYVeAk0L1mbj87dsvyqk2lOinzPSTkupZw0y8Hs4oBQRAAASYQKdEvMvvsk4V8cDacZdjEBhquAMCIAAC3RLxo446ij7++GOEtSECe/bsoeFw2FDpKBYEQAAE+kegUzPx1atX01tvvdW/KAZS4127dtEll1wSiDdwAwRAAAS6T6BTIr5x40baunVr96MWaA3vuOMO2rx5c6DewS0QAAEQ6B6BTon4zp07ac2aNd2LUktqxGdCOAZYQAAEQAAE6iHQKRFnZGvXrqXt27fXQw+lxASYObPHAgIgAAIgUB+Bzok4o1uyZAnt3bu3Poo9L4lZM3MsIAACIAAC9RLopIi/+OKLtHLlynpJ9ri0VatWETPHAgIgAAIgUC+BToo4I9yxYwexuHz++ef1Eu1RaTwD54MlZo0FBEAABECgfgKdFXFGybPDpUuX4jfyCtoV/wbOp9AxA68ALkyCAAiAQE4CnRZxxYAvuOIrp7ds2UJ8LzM/lARLMQLMjNnxbWTMEhexFeOH1CAAAiBQBYFeiDiD41ufNm3aJB5Gwk8V48eD8nO+8TedAbNiZvwgF74PHLeRVdEVYRMEQAAEihP4f/LqkKZXx2m5AAAAAElFTkSuQmCC;" vertex="1" parent="1">
          <mxGeometry x="160" y="100" width="497" height="423" as="geometry" />
        </mxCell>
      </root>
    </mxGraphModel>
  </diagram>
</mxfile>
